<svg xmlns="http://www.w3.org/2000/svg" xmlns:xlink="http://www.w3.org/1999/xlink" xmlns:s="https://github.com/nturley/netlistsvg" width="851" height="515">
  <style>svg {
    stroke:#000;
    fill:none;
  }
  text {
    fill:#000;
    stroke:none;
    font-size:10px;
    font-weight: bold;
    font-family: "Courier New", monospace;
  }
  .nodelabel {
    text-anchor: middle;
  }
  .inputPortLabel {
    text-anchor: end;
  }
  .splitjoinBody {
    fill:#000;
  }</style>
  <g s:type="and" transform="translate(252,113.5)" s:width="30" s:height="25" id="cell_$and$rtl/cla_4b.v:15$21">
    <s:alias val="$and"/>
    <s:alias val="$logic_and"/>
    <s:alias val="$_AND_"/>
    <path d="M0,0 L0,25 L15,25 A15 12.5 0 0 0 15,0 Z" class="cell_$and$rtl/cla_4b.v:15$21"/>
    <g s:x="0" s:y="5" s:pid="A"/>
    <g s:x="0" s:y="20" s:pid="B"/>
    <g s:x="30" s:y="12.5" s:pid="Y"/>
  </g>
  <g s:type="and" transform="translate(400,173.5)" s:width="30" s:height="25" id="cell_$and$rtl/cla_4b.v:15$23">
    <s:alias val="$and"/>
    <s:alias val="$logic_and"/>
    <s:alias val="$_AND_"/>
    <path d="M0,0 L0,25 L15,25 A15 12.5 0 0 0 15,0 Z" class="cell_$and$rtl/cla_4b.v:15$23"/>
    <g s:x="0" s:y="5" s:pid="A"/>
    <g s:x="0" s:y="20" s:pid="B"/>
    <g s:x="30" s:y="12.5" s:pid="Y"/>
  </g>
  <g s:type="and" transform="translate(538,344)" s:width="30" s:height="25" id="cell_$and$rtl/cla_4b.v:15$25">
    <s:alias val="$and"/>
    <s:alias val="$logic_and"/>
    <s:alias val="$_AND_"/>
    <path d="M0,0 L0,25 L15,25 A15 12.5 0 0 0 15,0 Z" class="cell_$and$rtl/cla_4b.v:15$25"/>
    <g s:x="0" s:y="5" s:pid="A"/>
    <g s:x="0" s:y="20" s:pid="B"/>
    <g s:x="30" s:y="12.5" s:pid="Y"/>
  </g>
  <g s:type="and" transform="translate(677,478)" s:width="30" s:height="25" id="cell_$and$rtl/cla_4b.v:15$27">
    <s:alias val="$and"/>
    <s:alias val="$logic_and"/>
    <s:alias val="$_AND_"/>
    <path d="M0,0 L0,25 L15,25 A15 12.5 0 0 0 15,0 Z" class="cell_$and$rtl/cla_4b.v:15$27"/>
    <g s:x="0" s:y="5" s:pid="A"/>
    <g s:x="0" s:y="20" s:pid="B"/>
    <g s:x="30" s:y="12.5" s:pid="Y"/>
  </g>
  <g s:type="and" transform="translate(252,173.5)" s:width="30" s:height="25" id="cell_$and$rtl/cla_4b.v:31$1">
    <s:alias val="$and"/>
    <s:alias val="$logic_and"/>
    <s:alias val="$_AND_"/>
    <path d="M0,0 L0,25 L15,25 A15 12.5 0 0 0 15,0 Z" class="cell_$and$rtl/cla_4b.v:31$1"/>
    <g s:x="0" s:y="5" s:pid="A"/>
    <g s:x="0" s:y="20" s:pid="B"/>
    <g s:x="30" s:y="12.5" s:pid="Y"/>
  </g>
  <g s:type="and" transform="translate(400,233.5)" s:width="30" s:height="25" id="cell_$and$rtl/cla_4b.v:32$5">
    <s:alias val="$and"/>
    <s:alias val="$logic_and"/>
    <s:alias val="$_AND_"/>
    <path d="M0,0 L0,25 L15,25 A15 12.5 0 0 0 15,0 Z" class="cell_$and$rtl/cla_4b.v:32$5"/>
    <g s:x="0" s:y="5" s:pid="A"/>
    <g s:x="0" s:y="20" s:pid="B"/>
    <g s:x="30" s:y="12.5" s:pid="Y"/>
  </g>
  <g s:type="and" transform="translate(538,287)" s:width="30" s:height="25" id="cell_$and$rtl/cla_4b.v:33$11">
    <s:alias val="$and"/>
    <s:alias val="$logic_and"/>
    <s:alias val="$_AND_"/>
    <path d="M0,0 L0,25 L15,25 A15 12.5 0 0 0 15,0 Z" class="cell_$and$rtl/cla_4b.v:33$11"/>
    <g s:x="0" s:y="5" s:pid="A"/>
    <g s:x="0" s:y="20" s:pid="B"/>
    <g s:x="30" s:y="12.5" s:pid="Y"/>
  </g>
  <g s:type="and" transform="translate(677,418)" s:width="30" s:height="25" id="cell_$and$rtl/cla_4b.v:34$19">
    <s:alias val="$and"/>
    <s:alias val="$logic_and"/>
    <s:alias val="$_AND_"/>
    <path d="M0,0 L0,25 L15,25 A15 12.5 0 0 0 15,0 Z" class="cell_$and$rtl/cla_4b.v:34$19"/>
    <g s:x="0" s:y="5" s:pid="A"/>
    <g s:x="0" s:y="20" s:pid="B"/>
    <g s:x="30" s:y="12.5" s:pid="Y"/>
  </g>
  <g s:type="or" transform="translate(318,121)" s:width="30" s:height="25" id="cell_$or$rtl/cla_4b.v:31$2">
    <s:alias val="$or"/>
    <s:alias val="$logic_or"/>
    <s:alias val="$_OR_"/>
    <path d="M0,25 L0,25 L15,25 A15 12.5 0 0 0 15,0 L0,0" class="cell_$or$rtl/cla_4b.v:31$2"/>
    <path d="M0,0 A30 25 0 0 1 0,25" class="cell_$or$rtl/cla_4b.v:31$2"/>
    <g s:x="3" s:y="5" s:pid="A"/>
    <g s:x="3" s:y="20" s:pid="B"/>
    <g s:x="30" s:y="12.5" s:pid="Y"/>
  </g>
  <g s:type="or" transform="translate(466,181)" s:width="30" s:height="25" id="cell_$or$rtl/cla_4b.v:32$6">
    <s:alias val="$or"/>
    <s:alias val="$logic_or"/>
    <s:alias val="$_OR_"/>
    <path d="M0,25 L0,25 L15,25 A15 12.5 0 0 0 15,0 L0,0" class="cell_$or$rtl/cla_4b.v:32$6"/>
    <path d="M0,0 A30 25 0 0 1 0,25" class="cell_$or$rtl/cla_4b.v:32$6"/>
    <g s:x="3" s:y="5" s:pid="A"/>
    <g s:x="3" s:y="20" s:pid="B"/>
    <g s:x="30" s:y="12.5" s:pid="Y"/>
  </g>
  <g s:type="or" transform="translate(604,351.5)" s:width="30" s:height="25" id="cell_$or$rtl/cla_4b.v:33$12">
    <s:alias val="$or"/>
    <s:alias val="$logic_or"/>
    <s:alias val="$_OR_"/>
    <path d="M0,25 L0,25 L15,25 A15 12.5 0 0 0 15,0 L0,0" class="cell_$or$rtl/cla_4b.v:33$12"/>
    <path d="M0,0 A30 25 0 0 1 0,25" class="cell_$or$rtl/cla_4b.v:33$12"/>
    <g s:x="3" s:y="5" s:pid="A"/>
    <g s:x="3" s:y="20" s:pid="B"/>
    <g s:x="30" s:y="12.5" s:pid="Y"/>
  </g>
  <g s:type="or" transform="translate(744,410.5)" s:width="30" s:height="25" id="cell_$or$rtl/cla_4b.v:34$20">
    <s:alias val="$or"/>
    <s:alias val="$logic_or"/>
    <s:alias val="$_OR_"/>
    <path d="M0,25 L0,25 L15,25 A15 12.5 0 0 0 15,0 L0,0" class="cell_$or$rtl/cla_4b.v:34$20"/>
    <path d="M0,0 A30 25 0 0 1 0,25" class="cell_$or$rtl/cla_4b.v:34$20"/>
    <g s:x="3" s:y="5" s:pid="A"/>
    <g s:x="3" s:y="20" s:pid="B"/>
    <g s:x="30" s:y="12.5" s:pid="Y"/>
  </g>
  <g s:type="reduce_xor" transform="translate(169,320.5)" s:width="33" s:height="25" id="cell_$xor$rtl/cla_4b.v:16$22">
    <s:alias val="$xor"/>
    <s:alias val="$reduce_xor"/>
    <s:alias val="$_XOR_"/>
    <path d="M3,0 A30 25 0 0 1 3,25 A30 25 0 0 0 33,12.5 A30 25 0 0 0 3,0" class="cell_$xor$rtl/cla_4b.v:16$22"/>
    <path d="M0,0 A30 25 0 0 1 0,25" class="cell_$xor$rtl/cla_4b.v:16$22"/>
    <g s:x="3" s:y="5" s:pid="A"/>
    <g s:x="3" s:y="20" s:pid="B"/>
    <g s:x="33" s:y="12.5" s:pid="Y"/>
  </g>
  <g s:type="reduce_xor" transform="translate(317,226)" s:width="33" s:height="25" id="cell_$xor$rtl/cla_4b.v:16$24">
    <s:alias val="$xor"/>
    <s:alias val="$reduce_xor"/>
    <s:alias val="$_XOR_"/>
    <path d="M3,0 A30 25 0 0 1 3,25 A30 25 0 0 0 33,12.5 A30 25 0 0 0 3,0" class="cell_$xor$rtl/cla_4b.v:16$24"/>
    <path d="M0,0 A30 25 0 0 1 0,25" class="cell_$xor$rtl/cla_4b.v:16$24"/>
    <g s:x="3" s:y="5" s:pid="A"/>
    <g s:x="3" s:y="20" s:pid="B"/>
    <g s:x="33" s:y="12.5" s:pid="Y"/>
  </g>
  <g s:type="reduce_xor" transform="translate(465,279.5)" s:width="33" s:height="25" id="cell_$xor$rtl/cla_4b.v:16$26">
    <s:alias val="$xor"/>
    <s:alias val="$reduce_xor"/>
    <s:alias val="$_XOR_"/>
    <path d="M3,0 A30 25 0 0 1 3,25 A30 25 0 0 0 33,12.5 A30 25 0 0 0 3,0" class="cell_$xor$rtl/cla_4b.v:16$26"/>
    <path d="M0,0 A30 25 0 0 1 0,25" class="cell_$xor$rtl/cla_4b.v:16$26"/>
    <g s:x="3" s:y="5" s:pid="A"/>
    <g s:x="3" s:y="20" s:pid="B"/>
    <g s:x="33" s:y="12.5" s:pid="Y"/>
  </g>
  <g s:type="reduce_xor" transform="translate(603,410.5)" s:width="33" s:height="25" id="cell_$xor$rtl/cla_4b.v:16$28">
    <s:alias val="$xor"/>
    <s:alias val="$reduce_xor"/>
    <s:alias val="$_XOR_"/>
    <path d="M3,0 A30 25 0 0 1 3,25 A30 25 0 0 0 33,12.5 A30 25 0 0 0 3,0" class="cell_$xor$rtl/cla_4b.v:16$28"/>
    <path d="M0,0 A30 25 0 0 1 0,25" class="cell_$xor$rtl/cla_4b.v:16$28"/>
    <g s:x="3" s:y="5" s:pid="A"/>
    <g s:x="3" s:y="20" s:pid="B"/>
    <g s:x="33" s:y="12.5" s:pid="Y"/>
  </g>
  <g s:type="reduce_xor" transform="translate(676,53.5)" s:width="33" s:height="25" id="cell_$xor$rtl/cla_4b.v:41$29">
    <s:alias val="$xor"/>
    <s:alias val="$reduce_xor"/>
    <s:alias val="$_XOR_"/>
    <path d="M3,0 A30 25 0 0 1 3,25 A30 25 0 0 0 33,12.5 A30 25 0 0 0 3,0" class="cell_$xor$rtl/cla_4b.v:41$29"/>
    <path d="M0,0 A30 25 0 0 1 0,25" class="cell_$xor$rtl/cla_4b.v:41$29"/>
    <g s:x="3" s:y="5" s:pid="A"/>
    <g s:x="3" s:y="20" s:pid="B"/>
    <g s:x="33" s:y="12.5" s:pid="Y"/>
  </g>
  <g s:type="reduce_xor" transform="translate(676,113.5)" s:width="33" s:height="25" id="cell_$xor$rtl/cla_4b.v:41$30">
    <s:alias val="$xor"/>
    <s:alias val="$reduce_xor"/>
    <s:alias val="$_XOR_"/>
    <path d="M3,0 A30 25 0 0 1 3,25 A30 25 0 0 0 33,12.5 A30 25 0 0 0 3,0" class="cell_$xor$rtl/cla_4b.v:41$30"/>
    <path d="M0,0 A30 25 0 0 1 0,25" class="cell_$xor$rtl/cla_4b.v:41$30"/>
    <g s:x="3" s:y="5" s:pid="A"/>
    <g s:x="3" s:y="20" s:pid="B"/>
    <g s:x="33" s:y="12.5" s:pid="Y"/>
  </g>
  <g s:type="reduce_xor" transform="translate(676,173.5)" s:width="33" s:height="25" id="cell_$xor$rtl/cla_4b.v:41$31">
    <s:alias val="$xor"/>
    <s:alias val="$reduce_xor"/>
    <s:alias val="$_XOR_"/>
    <path d="M3,0 A30 25 0 0 1 3,25 A30 25 0 0 0 33,12.5 A30 25 0 0 0 3,0" class="cell_$xor$rtl/cla_4b.v:41$31"/>
    <path d="M0,0 A30 25 0 0 1 0,25" class="cell_$xor$rtl/cla_4b.v:41$31"/>
    <g s:x="3" s:y="5" s:pid="A"/>
    <g s:x="3" s:y="20" s:pid="B"/>
    <g s:x="33" s:y="12.5" s:pid="Y"/>
  </g>
  <g s:type="reduce_xor" transform="translate(676,344)" s:width="33" s:height="25" id="cell_$xor$rtl/cla_4b.v:41$32">
    <s:alias val="$xor"/>
    <s:alias val="$reduce_xor"/>
    <s:alias val="$_XOR_"/>
    <path d="M3,0 A30 25 0 0 1 3,25 A30 25 0 0 0 33,12.5 A30 25 0 0 0 3,0" class="cell_$xor$rtl/cla_4b.v:41$32"/>
    <path d="M0,0 A30 25 0 0 1 0,25" class="cell_$xor$rtl/cla_4b.v:41$32"/>
    <g s:x="3" s:y="5" s:pid="A"/>
    <g s:x="3" s:y="20" s:pid="B"/>
    <g s:x="33" s:y="12.5" s:pid="Y"/>
  </g>
  <g s:type="inputExt" transform="translate(12,22.5)" s:width="30" s:height="20" id="cell_a">
    <text x="15" y="-4" class="nodelabel cell_a" s:attribute="ref">a</text>
    <s:alias val="$_inputExt_"/>
    <path d="M0,0 L0,20 L15,20 L30,10 L15,0 Z" class="cell_a"/>
    <g s:x="28" s:y="10" s:pid="Y"/>
  </g>
  <g s:type="inputExt" transform="translate(12,340.5)" s:width="30" s:height="20" id="cell_b">
    <text x="15" y="-4" class="nodelabel cell_b" s:attribute="ref">b</text>
    <s:alias val="$_inputExt_"/>
    <path d="M0,0 L0,20 L15,20 L30,10 L15,0 Z" class="cell_b"/>
    <g s:x="28" s:y="10" s:pid="Y"/>
  </g>
  <g s:type="inputExt" transform="translate(172,63.5)" s:width="30" s:height="20" id="cell_cin">
    <text x="15" y="-4" class="nodelabel cell_cin" s:attribute="ref">cin</text>
    <s:alias val="$_inputExt_"/>
    <path d="M0,0 L0,20 L15,20 L30,10 L15,0 Z" class="cell_cin"/>
    <g s:x="28" s:y="10" s:pid="Y"/>
  </g>
  <g s:type="outputExt" transform="translate(809,106)" s:width="30" s:height="20" id="cell_sum">
    <text x="15" y="-4" class="nodelabel cell_sum" s:attribute="ref">sum</text>
    <s:alias val="$_outputExt_"/>
    <path d="M30,0 L30,20 L15,20 L0,10 L15,0 Z" class="cell_sum"/>
    <g s:x="0" s:y="10" s:pid="A"/>
  </g>
  <g s:type="outputExt" transform="translate(809,413)" s:width="30" s:height="20" id="cell_cout">
    <text x="15" y="-4" class="nodelabel cell_cout" s:attribute="ref">cout</text>
    <s:alias val="$_outputExt_"/>
    <path d="M30,0 L30,20 L15,20 L0,10 L15,0 Z" class="cell_cout"/>
    <g s:x="0" s:y="10" s:pid="A"/>
  </g>
  <g s:type="join" transform="translate(754,95.5)" s:width="4" s:height="40" id="cell_$join$,11,12,13,14,">
    <rect width="5" height="80" class="splitjoinBody" s:generic="body"/>
    <s:alias val="$_join_"/>
    <g s:x="5" s:y="20" s:pid="out"/>
    <g transform="translate(0,10)" s:x="0" s:y="10" s:pid="in0">
      <text x="-3" y="-4" class="inputPortLabel">0</text>
    </g>
    <g transform="translate(0,30)" s:x="0" s:y="10" s:pid="in0">
      <text x="-3" y="-4" class="inputPortLabel">1</text>
    </g>
    <g transform="translate(0,50)" s:x="0" s:y="10" s:pid="in0">
      <text x="-3" y="-4" class="inputPortLabel">2</text>
    </g>
    <g transform="translate(0,70)" s:x="0" s:y="10" s:pid="in0">
      <text x="-3" y="-4" class="inputPortLabel">3</text>
    </g>
  </g>
  <g s:type="split" transform="translate(77,12)" s:width="5" s:height="40" id="cell_$split$,2,3,4,5,">
    <rect width="5" height="80" class="splitjoinBody" s:generic="body"/>
    <s:alias val="$_split_"/>
    <g s:x="0" s:y="20" s:pid="in"/>
    <g transform="translate(4,10)" s:x="4" s:y="10" s:pid="out0">
      <text x="5" y="-4">0</text>
    </g>
    <g transform="translate(4,30)" s:x="4" s:y="10" s:pid="out0">
      <text x="5" y="-4">1</text>
    </g>
    <g transform="translate(4,50)" s:x="4" s:y="10" s:pid="out0">
      <text x="5" y="-4">2</text>
    </g>
    <g transform="translate(4,70)" s:x="4" s:y="10" s:pid="out0">
      <text x="5" y="-4">3</text>
    </g>
  </g>
  <g s:type="split" transform="translate(77,330)" s:width="5" s:height="40" id="cell_$split$,6,7,8,9,">
    <rect width="5" height="80" class="splitjoinBody" s:generic="body"/>
    <s:alias val="$_split_"/>
    <g s:x="0" s:y="20" s:pid="in"/>
    <g transform="translate(4,10)" s:x="4" s:y="10" s:pid="out0">
      <text x="5" y="-4">0</text>
    </g>
    <g transform="translate(4,30)" s:x="4" s:y="10" s:pid="out0">
      <text x="5" y="-4">1</text>
    </g>
    <g transform="translate(4,50)" s:x="4" s:y="10" s:pid="out0">
      <text x="5" y="-4">2</text>
    </g>
    <g transform="translate(4,70)" s:x="4" s:y="10" s:pid="out0">
      <text x="5" y="-4">3</text>
    </g>
  </g>
  <line x1="82" x2="242" y1="22.5" y2="22.5" class="net_2"/>
  <line x1="242" x2="242" y1="22.5" y2="118.5" class="net_2"/>
  <line x1="242" x2="252" y1="118.5" y2="118.5" class="net_2"/>
  <line x1="82" x2="159" y1="22.5" y2="22.5" class="net_2"/>
  <line x1="159" x2="159" y1="22.5" y2="325.5" class="net_2"/>
  <circle cx="159" cy="22.5" r="2" style="fill:#000" class="net_2"/>
  <line x1="159" x2="172" y1="325.5" y2="325.5" class="net_2"/>
  <line x1="82" x2="129" y1="340.5" y2="340.5" class="net_6"/>
  <line x1="129" x2="129" y1="340.5" y2="397.5" class="net_6"/>
  <line x1="129" x2="222" y1="397.5" y2="397.5" class="net_6"/>
  <line x1="222" x2="222" y1="397.5" y2="133.5" class="net_6"/>
  <circle cx="129" cy="340.5" r="2" style="fill:#000" class="net_6"/>
  <line x1="222" x2="252" y1="133.5" y2="133.5" class="net_6"/>
  <line x1="82" x2="172" y1="340.5" y2="340.5" class="net_6"/>
  <line x1="82" x2="390" y1="42.5" y2="42.5" class="net_3"/>
  <line x1="390" x2="390" y1="42.5" y2="178.5" class="net_3"/>
  <line x1="390" x2="400" y1="178.5" y2="178.5" class="net_3"/>
  <line x1="82" x2="302" y1="42.5" y2="42.5" class="net_3"/>
  <line x1="302" x2="302" y1="42.5" y2="231" class="net_3"/>
  <circle cx="302" cy="42.5" r="2" style="fill:#000" class="net_3"/>
  <line x1="302" x2="320" y1="231" y2="231" class="net_3"/>
  <line x1="82" x2="119" y1="360.5" y2="360.5" class="net_7"/>
  <line x1="119" x2="119" y1="360.5" y2="408.5" class="net_7"/>
  <line x1="119" x2="360" y1="408.5" y2="408.5" class="net_7"/>
  <line x1="360" x2="360" y1="408.5" y2="193.5" class="net_7"/>
  <line x1="360" x2="400" y1="193.5" y2="193.5" class="net_7"/>
  <line x1="82" x2="119" y1="360.5" y2="360.5" class="net_7"/>
  <line x1="119" x2="119" y1="360.5" y2="408.5" class="net_7"/>
  <line x1="119" x2="292" y1="408.5" y2="408.5" class="net_7"/>
  <line x1="292" x2="292" y1="408.5" y2="246" class="net_7"/>
  <circle cx="292" cy="408.5" r="2" style="fill:#000" class="net_7"/>
  <line x1="292" x2="320" y1="246" y2="246" class="net_7"/>
  <line x1="82" x2="149" y1="62.5" y2="62.5" class="net_4"/>
  <line x1="149" x2="149" y1="62.5" y2="93.5" class="net_4"/>
  <line x1="149" x2="212" y1="93.5" y2="93.5" class="net_4"/>
  <line x1="212" x2="212" y1="93.5" y2="314.5" class="net_4"/>
  <line x1="212" x2="508" y1="314.5" y2="314.5" class="net_4"/>
  <line x1="508" x2="508" y1="314.5" y2="349" class="net_4"/>
  <circle cx="212" cy="93.5" r="2" style="fill:#000" class="net_4"/>
  <line x1="508" x2="538" y1="349" y2="349" class="net_4"/>
  <line x1="82" x2="149" y1="62.5" y2="62.5" class="net_4"/>
  <line x1="149" x2="149" y1="62.5" y2="93.5" class="net_4"/>
  <line x1="149" x2="450" y1="93.5" y2="93.5" class="net_4"/>
  <line x1="450" x2="450" y1="93.5" y2="284.5" class="net_4"/>
  <line x1="450" x2="468" y1="284.5" y2="284.5" class="net_4"/>
  <line x1="82" x2="109" y1="380.5" y2="380.5" class="net_8"/>
  <line x1="109" x2="109" y1="380.5" y2="419.5" class="net_8"/>
  <line x1="109" x2="508" y1="419.5" y2="419.5" class="net_8"/>
  <line x1="508" x2="508" y1="419.5" y2="364" class="net_8"/>
  <line x1="508" x2="538" y1="364" y2="364" class="net_8"/>
  <line x1="82" x2="109" y1="380.5" y2="380.5" class="net_8"/>
  <line x1="109" x2="109" y1="380.5" y2="419.5" class="net_8"/>
  <line x1="109" x2="440" y1="419.5" y2="419.5" class="net_8"/>
  <line x1="440" x2="440" y1="419.5" y2="299.5" class="net_8"/>
  <circle cx="440" cy="419.5" r="2" style="fill:#000" class="net_8"/>
  <line x1="440" x2="468" y1="299.5" y2="299.5" class="net_8"/>
  <line x1="82" x2="139" y1="82.5" y2="82.5" class="net_5"/>
  <line x1="139" x2="139" y1="82.5" y2="386.5" class="net_5"/>
  <line x1="139" x2="646" y1="386.5" y2="386.5" class="net_5"/>
  <line x1="646" x2="646" y1="386.5" y2="483" class="net_5"/>
  <line x1="646" x2="677" y1="483" y2="483" class="net_5"/>
  <line x1="82" x2="139" y1="82.5" y2="82.5" class="net_5"/>
  <line x1="139" x2="139" y1="82.5" y2="386.5" class="net_5"/>
  <line x1="139" x2="578" y1="386.5" y2="386.5" class="net_5"/>
  <line x1="578" x2="578" y1="386.5" y2="415.5" class="net_5"/>
  <circle cx="578" cy="386.5" r="2" style="fill:#000" class="net_5"/>
  <line x1="578" x2="606" y1="415.5" y2="415.5" class="net_5"/>
  <line x1="82" x2="99" y1="400.5" y2="400.5" class="net_9"/>
  <line x1="99" x2="99" y1="400.5" y2="430.5" class="net_9"/>
  <line x1="99" x2="578" y1="430.5" y2="430.5" class="net_9"/>
  <line x1="578" x2="578" y1="430.5" y2="498" class="net_9"/>
  <circle cx="578" cy="430.5" r="2" style="fill:#000" class="net_9"/>
  <line x1="578" x2="677" y1="498" y2="498" class="net_9"/>
  <line x1="82" x2="99" y1="400.5" y2="400.5" class="net_9"/>
  <line x1="99" x2="99" y1="400.5" y2="430.5" class="net_9"/>
  <line x1="99" x2="606" y1="430.5" y2="430.5" class="net_9"/>
  <line x1="202" x2="242" y1="333" y2="333" class="net_20"/>
  <line x1="242" x2="242" y1="333" y2="178.5" class="net_20"/>
  <circle cx="242" cy="333" r="2" style="fill:#000" class="net_20"/>
  <line x1="242" x2="252" y1="178.5" y2="178.5" class="net_20"/>
  <line x1="202" x2="656" y1="333" y2="333" class="net_20"/>
  <line x1="656" x2="656" y1="333" y2="58.5" class="net_20"/>
  <line x1="656" x2="679" y1="58.5" y2="58.5" class="net_20"/>
  <line x1="200" x2="232" y1="73.5" y2="73.5" class="net_10"/>
  <line x1="232" x2="232" y1="73.5" y2="193.5" class="net_10"/>
  <circle cx="232" cy="73.5" r="2" style="fill:#000" class="net_10"/>
  <line x1="232" x2="252" y1="193.5" y2="193.5" class="net_10"/>
  <line x1="200" x2="679" y1="73.5" y2="73.5" class="net_10"/>
  <line x1="350" x2="400" y1="238.5" y2="238.5" class="net_22"/>
  <line x1="350" x2="370" y1="238.5" y2="238.5" class="net_22"/>
  <line x1="370" x2="370" y1="238.5" y2="268.5" class="net_22"/>
  <line x1="370" x2="646" y1="268.5" y2="268.5" class="net_22"/>
  <line x1="646" x2="646" y1="268.5" y2="118.5" class="net_22"/>
  <circle cx="370" cy="238.5" r="2" style="fill:#000" class="net_22"/>
  <line x1="646" x2="679" y1="118.5" y2="118.5" class="net_22"/>
  <line x1="348" x2="380" y1="133.5" y2="133.5" class="net_23"/>
  <line x1="380" x2="380" y1="133.5" y2="253.5" class="net_23"/>
  <circle cx="380" cy="133.5" r="2" style="fill:#000" class="net_23"/>
  <line x1="380" x2="400" y1="253.5" y2="253.5" class="net_23"/>
  <line x1="348" x2="679" y1="133.5" y2="133.5" class="net_23"/>
  <line x1="498" x2="538" y1="292" y2="292" class="net_25"/>
  <line x1="498" x2="518" y1="292" y2="292" class="net_25"/>
  <line x1="518" x2="518" y1="292" y2="322" class="net_25"/>
  <line x1="518" x2="666" y1="322" y2="322" class="net_25"/>
  <line x1="666" x2="666" y1="322" y2="178.5" class="net_25"/>
  <circle cx="518" cy="292" r="2" style="fill:#000" class="net_25"/>
  <line x1="666" x2="679" y1="178.5" y2="178.5" class="net_25"/>
  <line x1="496" x2="528" y1="193.5" y2="193.5" class="net_26"/>
  <line x1="528" x2="528" y1="193.5" y2="307" class="net_26"/>
  <circle cx="528" cy="193.5" r="2" style="fill:#000" class="net_26"/>
  <line x1="528" x2="538" y1="307" y2="307" class="net_26"/>
  <line x1="496" x2="679" y1="193.5" y2="193.5" class="net_26"/>
  <line x1="636" x2="677" y1="423" y2="423" class="net_28"/>
  <line x1="636" x2="656" y1="423" y2="423" class="net_28"/>
  <line x1="656" x2="656" y1="423" y2="349" class="net_28"/>
  <circle cx="656" cy="423" r="2" style="fill:#000" class="net_28"/>
  <line x1="656" x2="679" y1="349" y2="349" class="net_28"/>
  <line x1="634" x2="666" y1="364" y2="364" class="net_29"/>
  <line x1="666" x2="666" y1="364" y2="438" class="net_29"/>
  <circle cx="666" cy="364" r="2" style="fill:#000" class="net_29"/>
  <line x1="666" x2="677" y1="438" y2="438" class="net_29"/>
  <line x1="634" x2="679" y1="364" y2="364" class="net_29"/>
  <line x1="282" x2="321" y1="126" y2="126" class="net_16"/>
  <line x1="282" x2="292" y1="186" y2="186" class="net_21"/>
  <line x1="292" x2="292" y1="186" y2="141" class="net_21"/>
  <line x1="292" x2="321" y1="141" y2="141" class="net_21"/>
  <line x1="430" x2="469" y1="186" y2="186" class="net_17"/>
  <line x1="430" x2="440" y1="246" y2="246" class="net_24"/>
  <line x1="440" x2="440" y1="246" y2="201" class="net_24"/>
  <line x1="440" x2="469" y1="201" y2="201" class="net_24"/>
  <line x1="568" x2="607" y1="356.5" y2="356.5" class="net_18"/>
  <line x1="568" x2="578" y1="299.5" y2="299.5" class="net_27"/>
  <line x1="578" x2="578" y1="299.5" y2="371.5" class="net_27"/>
  <line x1="578" x2="607" y1="371.5" y2="371.5" class="net_27"/>
  <line x1="707" x2="719" y1="490.5" y2="490.5" class="net_19"/>
  <line x1="719" x2="719" y1="490.5" y2="415.5" class="net_19"/>
  <line x1="719" x2="747" y1="415.5" y2="415.5" class="net_19"/>
  <line x1="707" x2="747" y1="430.5" y2="430.5" class="net_30"/>
  <line x1="760" x2="809" y1="116" y2="116" class="net_11,12,13,14"/>
  <line x1="774" x2="809" y1="423" y2="423" class="net_15"/>
  <line x1="709" x2="719" y1="66" y2="66" class="net_11"/>
  <line x1="719" x2="719" y1="66" y2="106" class="net_11"/>
  <line x1="719" x2="754" y1="106" y2="106" class="net_11"/>
  <line x1="709" x2="754" y1="126" y2="126" class="net_12"/>
  <line x1="709" x2="719" y1="186" y2="186" class="net_13"/>
  <line x1="719" x2="719" y1="186" y2="146" class="net_13"/>
  <line x1="719" x2="754" y1="146" y2="146" class="net_13"/>
  <line x1="709" x2="754.5" y1="356.5" y2="356.5" class="net_14"/>
  <line x1="754.5" x2="754.5" y1="356.5" y2="166.5" class="net_14"/>
  <line x1="40" x2="77" y1="32.5" y2="32.5" class="net_2,3,4,5"/>
  <line x1="40" x2="77" y1="350.5" y2="350.5" class="net_6,7,8,9"/>
</svg>
